<?xml version="1.0" encoding="UTF-8"?>
<svg width="46px" height="51px" viewBox="0 0 46 51" version="1.1" xmlns="http://www.w3.org/2000/svg" xmlns:xlink="http://www.w3.org/1999/xlink">
    <!-- Generator: Sketch 49.1 (51147) - http://www.bohemiancoding.com/sketch -->
    <title>Path 2</title>
    <desc>Created with Sketch.</desc>
    <defs></defs>
    <g id="Editing" stroke="none" stroke-width="1" fill="none" fill-rule="evenodd">
        <g id="chords" transform="translate(-1122.000000, -509.000000)" fill="#FFFFFF">
            <path d="M1135.5585,559.735104 C1138.81038,558.975262 1141.92554,558.595341 1144.90398,558.595341 C1147.85777,558.595341 1150.82788,558.969 1153.8143,559.716319 L1153.81431,559.716279 C1154.34026,559.847894 1154.8753,559.536388 1155.02049,559.014016 L1167.4843,514.171587 C1167.63219,513.63949 1167.32073,513.088248 1166.78864,512.940353 C1166.78691,512.939874 1166.78519,512.9394 1166.78346,512.938931 C1159.12785,510.855249 1151.83469,509.862686 1144.90398,509.961243 C1137.97911,510.059716 1130.69241,511.058636 1123.04387,512.958003 L1123.04387,512.957986 C1122.50785,513.091095 1122.18123,513.633526 1122.31434,514.16954 C1122.31587,514.175714 1122.31747,514.181872 1122.31912,514.188016 L1134.36524,559.020836 C1134.50522,559.541808 1135.0332,559.857847 1135.5585,559.735104 Z" id="Path-2"></path>
        </g>
    </g>
</svg>