<?xml version="1.0" encoding="UTF-8"?>
<svg width="19px" height="19px" viewBox="0 0 19 19" version="1.1" xmlns="http://www.w3.org/2000/svg" xmlns:xlink="http://www.w3.org/1999/xlink">
    <!-- Generator: Sketch 49.1 (51147) - http://www.bohemiancoding.com/sketch -->
    <title>Edit</title>
    <desc>Created with Sketch.</desc>
    <defs></defs>
    <g id="SearchInput" stroke="none" stroke-width="1" fill="none" fill-rule="evenodd">
        <g id="Desktop" transform="translate(-1304.000000, -179.000000)" fill="#50535A" fill-rule="nonzero">
            <g id="Edit" transform="translate(1304.000000, 179.000000)">
                <g id="Group">
                    <path d="M14.4083333,19 L3.00833333,19 C1.34583333,19 0,17.6541667 0,15.9916667 L0,4.59166667 C0,2.92916667 1.34583333,1.58333333 3.00833333,1.58333333 L8.70833333,1.58333333 C9.18333333,1.58333333 9.5,1.9 9.5,2.375 C9.5,2.85 9.18333333,3.16666667 8.70833333,3.16666667 L3.00833333,3.16666667 C2.21666667,3.16666667 1.58333333,3.8 1.58333333,4.59166667 L1.58333333,15.9125 C1.58333333,16.7041667 2.21666667,17.3375 3.00833333,17.3375 L14.3291667,17.3375 C15.1208333,17.3375 15.7541667,16.7041667 15.7541667,15.9125 L15.7541667,10.2916667 C15.7541667,9.81666667 16.0708333,9.5 16.5458333,9.5 C17.0208333,9.5 17.3375,9.81666667 17.3375,10.2916667 L17.3375,15.9916667 C17.4166667,17.6541667 16.0708333,19 14.4083333,19 Z" id="Shape"></path>
                    <path d="M4.75,15.0416667 C4.5125,15.0416667 4.35416667,14.9625 4.19583333,14.8041667 C4.0375,14.6458333 3.95833333,14.3291667 3.95833333,14.0916667 L4.75,10.1333333 C4.75,9.975 4.82916667,9.81666667 4.9875,9.7375 L14.4875,0.2375 C14.8041667,-0.0791666667 15.2791667,-0.0791666667 15.5958333,0.2375 L18.7625,3.40416667 C19.0791667,3.72083333 19.0791667,4.19583333 18.7625,4.5125 L9.2625,14.0125 C9.18333333,14.0916667 9.025,14.1708333 8.86666667,14.25 L4.90833333,15.0416667 L4.75,15.0416667 Z M6.25416667,10.6875 L5.77916667,13.2208333 L8.3125,12.7458333 L17.1,3.95833333 L15.0416667,1.9 L6.25416667,10.6875 Z" id="Shape"></path>
                </g>
            </g>
        </g>
    </g>
</svg>