<?xml version="1.0" encoding="UTF-8"?>
<svg width="19px" height="17px" viewBox="0 0 19 17" version="1.1" xmlns="http://www.w3.org/2000/svg" xmlns:xlink="http://www.w3.org/1999/xlink">
    <!-- Generator: Sketch 49.1 (51147) - http://www.bohemiancoding.com/sketch -->
    <title>Menu</title>
    <desc>Created with Sketch.</desc>
    <defs></defs>
    <g id="SearchInput" stroke="none" stroke-width="1" fill="none" fill-rule="evenodd">
        <g id="Desktop" transform="translate(-270.000000, -179.000000)" fill="#50535A" fill-rule="nonzero">
            <g id="Menu" transform="translate(270.000000, 179.000000)">
                <g id="Layer_1">
                    <path d="M17.2948718,3.20579793 L1.70512821,3.20579793 C0.828205128,3.20579793 0.121794872,2.51714504 0.121794872,1.6622656 C0.121794872,0.807386146 0.828205128,0.118733257 1.70512821,0.118733257 L17.2948718,0.118733257 C18.1717949,0.118733257 18.8782051,0.807386146 18.8782051,1.6622656 C18.8782051,2.51714504 18.1717949,3.20579793 17.2948718,3.20579793 Z M18.8782051,8.54879449 C18.8782051,7.69391504 18.1717949,7.00526215 17.2948718,7.00526215 L1.70512821,7.00526215 C0.828205128,7.00526215 0.121794872,7.69391504 0.121794872,8.54879449 C0.121794872,9.40367394 0.828205128,10.0923268 1.70512821,10.0923268 L17.2948718,10.0923268 C18.1717949,10.0923268 18.8782051,9.40367394 18.8782051,8.54879449 Z M18.8782051,15.4353234 C18.8782051,14.5804439 18.1717949,13.891791 17.2948718,13.891791 L1.70512821,13.891791 C0.828205128,13.891791 0.121794872,14.5804439 0.121794872,15.4353234 C0.121794872,16.2902028 0.828205128,16.9788557 1.70512821,16.9788557 L17.2948718,16.9788557 C18.1717949,16.9788557 18.8782051,16.2902028 18.8782051,15.4353234 Z" id="XMLID_101_"></path>
                </g>
            </g>
        </g>
    </g>
</svg>