<?xml version="1.0" encoding="UTF-8"?>
<svg width="18px" height="16px" viewBox="0 0 18 16" version="1.1" xmlns="http://www.w3.org/2000/svg" xmlns:xlink="http://www.w3.org/1999/xlink">
    <!-- Generator: Sketch 49.1 (51147) - http://www.bohemiancoding.com/sketch -->
    <title>Palette</title>
    <desc>Created with Sketch.</desc>
    <defs></defs>
    <g id="Details" stroke="none" stroke-width="1" fill="none" fill-rule="evenodd">
        <g id="Desktop" transform="translate(-290.000000, -757.000000)" fill="#50535A" fill-rule="nonzero">
            <g id="Palette" transform="translate(290.000000, 757.000000)">
                <g id="Shape">
                    <path d="M14.4309231,1.04978286 C11.0928923,-0.0616685714 7.7454,0.149188571 4.28815385,2.24370286 C1.58877692,3.87714286 -0.1758,7.93778286 0.406084615,10.8485486 C1.09488462,14.2888 4.5228,16.46672 9.15138462,15.2072 C14.1423462,13.84928 15.3477462,10.9469486 15.1869,10.20848 C15.0260538,9.47001143 12.6654,8.66032 13.5614077,6.93035429 C14.6854385,4.76274286 16.5219231,5.85357714 17.3289923,5.41030857 C18.1379538,4.96797714 17.8389692,2.18466286 14.4309231,1.04978286 Z M10.9812462,11.0828343 C10.2231027,11.285177 9.44276187,10.8410584 9.23748462,10.0904 C9.13616815,9.73061521 9.1835847,9.34568442 9.36926688,9.02058252 C9.55494907,8.69548062 9.86362796,8.45694125 10.2271615,8.35762286 C10.5912693,8.26018809 10.9795422,8.31001013 11.3065622,8.49612837 C11.6335821,8.6822466 11.8725605,8.9894147 11.9709231,9.35005714 C12.0719762,9.70983509 12.0244425,10.0946475 11.8387984,10.4196828 C11.6531543,10.744718 11.3446382,10.9832958 10.9812462,11.0828343 Z"></path>
                </g>
            </g>
        </g>
    </g>
</svg>