<?xml version="1.0" encoding="UTF-8"?>
<svg width="13px" height="13px" viewBox="0 0 13 13" version="1.1" xmlns="http://www.w3.org/2000/svg" xmlns:xlink="http://www.w3.org/1999/xlink">
    <!-- Generator: Sketch 49.1 (51147) - http://www.bohemiancoding.com/sketch -->
    <title>Search</title>
    <desc>Created with Sketch.</desc>
    <defs></defs>
    <g id="Details" stroke="none" stroke-width="1" fill="none" fill-rule="evenodd">
        <g id="Desktop" transform="translate(-712.000000, -180.000000)" fill="#393A3B" fill-rule="nonzero">
            <g id="Search" transform="translate(712.000000, 180.000000)">
                <g id="Layer_1">
                    <path d="M12.8270114,11.9913182 L9.47345455,8.63776136 C10.2279962,7.69605601 10.6382778,6.52488741 10.6363636,5.31818182 C10.6363636,2.38106818 8.25544318,0 5.31818182,0 C2.38106818,0 0,2.38106818 0,5.31818182 C0,8.25529545 2.38106818,10.6363636 5.31818182,10.6363636 C6.57386364,10.6363636 7.72790909,10.2011591 8.63776136,9.47330682 L11.9913182,12.8268636 C12.1019986,12.9378539 12.252346,13.0001619 12.4090909,13 C12.648079,13.0000087 12.8635426,12.8560608 12.9550201,12.6352732 C13.0464975,12.4144856 12.9959759,12.1603338 12.8270114,11.9913182 Z M5.31818182,9.45454545 C3.03372727,9.45454545 1.18181818,7.60263636 1.18181818,5.31818182 C1.18181818,3.03372727 3.03372727,1.18181818 5.31818182,1.18181818 C7.60278409,1.18181818 9.45454545,3.03372727 9.45454545,5.31818182 C9.45454545,7.60263636 7.60278409,9.45454545 5.31818182,9.45454545 Z" id="Shape"></path>
                </g>
            </g>
        </g>
    </g>
</svg>